PathFileType	4	(X/Y/Z)	OpenSim_Sub02_CSStiffKnee_Gyro.trc
DataRate	CameraRate	NumFrames	NumMarkers	Units	OrigDataRate	OrigDataStartFrame	OrigNumFrames
100	100	17	8	m	100	2585	6891
Frame#	Time	torso_imu_offset_imu	pelvis_imu_offset_imu	tibia_r_imu_offset_imu	femur_r_imu_offset_imu	tibia_l_imu_offset_imu	femur_l_imu_offset_imu	toes_r_imu_offset_imu	toes_l_imu_offset_imu
				X1	Y1	Z1	X2	Y2	Z2	X3	Y3	Z3	X4	Y4	Z4	X5	Y5	Z5	X6	Y6	Z6	X7	Y7	Z7	X8		Y8	Z8	

2585	25.84000000	0.12316325	0.18400782	0.09944793	0.45922420	-0.16747598	0.23713385	0.86156961	0.12618550	2.19925724	1.44389958	-0.29780754	-0.71509786	0.15557204	0.67968175	1.01767358	1.17720549	0.46391025	0.71741481	-0.41304802	2.07003296	-0.01102702	-0.25618743	-1.42734873	0.55940254
2586	25.85000000	0.15686880	0.26475142	0.12025064	0.42129908	-0.17729435	0.25375548	0.77050619	0.14834905	1.41217494	1.15492673	-0.38962743	-0.41597067	0.09099709	0.74344588	1.11061701	1.22273980	0.52087650	0.65546681	-0.80180959	1.25830641	0.37164617	-0.24736469	-1.59891116	0.54247771
2587	25.86000000	0.18470678	0.34915613	0.13182504	0.43556288	-0.20805245	0.23662093	0.44495723	-0.10392582	0.59792341	0.64790980	-0.38463089	-0.17124800	0.04578999	0.83590964	1.21932001	1.20843127	0.58631777	0.58588174	-0.49271081	0.28991756	0.75829755	-0.21870147	-1.78339176	0.53848956
2588	25.87000000	0.22064321	0.43936752	0.13103892	0.51849149	-0.23550679	0.20029518	-0.20146171	-0.35795052	-0.17400470	0.17289650	-0.34433085	-0.01454723	0.06043528	0.90519409	1.31993428	1.14353870	0.62490790	0.52173197	0.50070496	-0.78691268	1.01593667	-0.20941422	-1.99288830	0.52821497
2589	25.88000000	0.26383827	0.54464886	0.12955302	0.57199651	-0.28960868	0.16589377	-0.33927230	-0.38186878	-0.95873339	-0.20354601	-0.27075422	0.08115097	0.15780966	0.97669158	1.42650590	1.07039023	0.64457312	0.48028586	1.27323073	-1.78928262	0.88654981	-0.18895803	-2.22131557	0.53671050
2590	25.89000000	0.31805192	0.64573166	0.12360777	0.67522670	-0.29231626	0.15185156	0.06749714	-0.36073189	-1.71085174	-0.47831310	-0.16339794	0.15262882	0.24900278	1.03170692	1.56791553	0.99838205	0.66147863	0.41583352	0.84251991	-2.98175161	0.34332477	-0.23197359	-2.51193958	0.58008047
2591	25.90000000	0.35804645	0.71660395	0.10044779	0.77837738	-0.05223359	0.22771439	1.40559040	-0.59820384	-2.37964407	-0.45116990	-0.44812412	0.12272846	0.32594266	1.08466037	1.71103095	0.91387075	0.71083784	0.31492359	-3.45314876	-5.57870174	-0.55563238	-0.28260526	-2.90016674	0.63666234
2592	25.91000000	0.31869899	0.80421751	0.08173862	0.60264494	0.34277680	0.43666349	2.36393430	-1.61926613	-2.24801641	-0.22913795	-1.39382981	-0.38365777	0.29578035	1.19570979	1.85471599	0.77230845	0.74700811	0.18231926	2.22847484	-7.88291298	-1.55448630	-0.33155988	-3.40304293	0.68107878
2593	25.92000000	0.18642062	0.92395887	0.09202455	-0.11375984	0.28679332	0.63659849	-0.63957774	-3.02400173	-0.57184596	-0.43769966	-2.01717921	-1.30891092	0.15181937	1.24781238	1.95990407	0.64426350	0.65179025	0.04595587	5.45872381	-9.57906027	-1.01934032	-0.42172272	-3.97322807	0.77591934
2594	25.93000000	0.10654003	0.92874620	0.14558486	-0.67156638	0.03277621	0.62887675	-2.78092176	-1.62427012	0.96339581	-0.54523352	-1.24486477	-1.15674218	0.07333476	1.25330991	1.97549743	0.43847735	0.45378270	-0.14786161	-0.20286059	-6.54202702	-0.25702801	-0.57565277	-4.53299034	0.94022631
2595	25.94000000	0.09471963	0.88788433	0.16880446	-0.65223929	0.08905573	0.57825331	1.82655717	1.80570038	-0.39074775	-0.06156302	-0.32192361	-0.09494370	-0.07392792	1.23811020	2.00745221	0.05633548	0.37209679	-0.40422897	10.78039440	4.20072611	-1.05679916	-0.80065021	-5.10528057	1.05684267
2596	25.95000000	-0.00812701	0.91667835	0.07070588	-1.13116329	-0.04867513	0.57055433	4.21446319	2.87955163	-2.83201958	0.90072520	-0.13301995	0.86452083	-0.21893655	1.26060948	2.15566028	-0.40959744	0.32507308	-0.62919070	-3.40880252	-0.46199158	0.22062678	-1.01320545	-5.59266490	1.15025416
2597	25.96000000	-0.11871207	0.78380810	-0.03791479	-1.05181102	-0.21416935	0.43837710	3.52571772	1.33348593	-3.50183041	1.62181112	-0.53241156	2.03650895	-0.20095076	1.20033597	2.25770204	-0.69541047	0.14931351	-0.82315539	-4.38994438	-1.19534297	0.08254251	-1.03600083	-5.98793801	1.26016306
2598	25.97000000	-0.09008346	0.53606086	-0.09206623	-0.53897769	-0.45220645	0.13295289	1.99186436	-1.27537465	-2.94173364	2.32794042	-0.77139599	2.24929727	-0.78038514	1.24481610	2.25316460	-0.90919947	-0.04505627	-1.03366914	3.51418260	-0.03561140	0.19971200	-0.20973190	-6.33454685	1.17962387
2599	25.98000000	0.02235777	0.34677561	-0.18426733	-0.16157293	-0.56892821	-0.17175898	-0.11790540	-1.20058372	-2.11346259	2.67958780	0.05280551	1.35306480	-1.29090656	1.39231106	2.41501449	-1.17052172	-0.14798269	-1.22842966	-1.86674619	-0.52294023	0.11248250	1.11277937	-6.34807011	1.05486660
2600	25.99000000	0.09997496	0.19797994	-0.26386107	0.16229585	-0.53088532	-0.22420713	-0.83169117	0.30141054	-2.48585271	1.27187365	-0.01075848	0.08947179	-0.22482257	1.26054224	2.50894095	-1.26225537	-0.07979796	-1.34409078	-0.35910543	-0.27006100	0.05086999	2.11708094	-5.73760002	0.99648735
2601	26	0.13167617	0.09545138	-0.27534921	0.25833461	-0.41609387	-0.03368686	0.62571248	-0.26010719	-2.13279820	-0.59553623	-0.69727043	-1.10099332	0.62430478	1.16541943	2.32806543	-1.01030588	0.05930949	-1.41107994	0.38098303	-0.17524541	-0.02368747	3.50227166	-4.93710089	1.12861681
